<svg width="14" height="17" viewBox="0 0 14 17" fill="none" xmlns="http://www.w3.org/2000/svg">
<path d="M13 7.13636C13 11.9091 7 16 7 16C7 16 1 11.9091 1 7.13636C1 5.5089 1.63214 3.94809 2.75736 2.7973C3.88258 1.64651 5.4087 1 7 1C8.5913 1 10.1174 1.64651 11.2426 2.7973C12.3679 3.94809 13 5.5089 13 7.13636Z" stroke="black" stroke-linecap="round" stroke-linejoin="round"/>
<path d="M7 9C8.10457 9 9 8.10457 9 7C9 5.89543 8.10457 5 7 5C5.89543 5 5 5.89543 5 7C5 8.10457 5.89543 9 7 9Z" stroke="black" stroke-linecap="round" stroke-linejoin="round"/>
</svg>
